# xmcd CD database file
#
# Track frame offsets:
#	187
#	13622
#	26755
#	41260
#	52822
#	66925
#	83035
#	98425
#	114007
#	129467
#	145380
#	160015
#	177310
#
# Disc length: 2597 seconds
#
# Revision: 8
# Processed by: cddbd v1.5.1PL0 Copyright (c) Steve Scherf et al.
# Submitted via: CDex 1.50
#
DISCID=970a230d
DTITLE=Secret Garden - Songs from a Secret Garden
DYEAR=1995
DGENRE=New Age
TTITLE0=Atlantia
TTITLE1=Adagio
TTITLE2=Nocturne
TTITLE3=The Rap
TTITLE4=Sigma
TTITLE5=Song From A Secret Garden
TTITLE6=Heartstrings
TTITLE7=Chaconne
TTITLE8=Papillon
TTITLE9=Cantoluna
TTITLE10=Serenade To Spring
TTITLE11=Pastorale
TTITLE12=Ode To Simplicity
EXTD=YEAR: 1995
EXTT0=
EXTT1=
EXTT2=
EXTT3=
EXTT4=
EXTT5=
EXTT6=
EXTT7=
EXTT8=
EXTT9=
EXTT10=
EXTT11=
EXTT12=
PLAYORDER=
